# xmcd CD database file
#
# Track frame offsets:
#	150
#	18585
#	29512
#	43152
#	56510
#	72192
#	88075
#	100272
#	115730
#	130877
#	141430
#	155687
#	171862
#
# Disc length: 2426 seconds
#
# Revision: 0
# Processed by: cddbd v1.5.2PL0 Copyright (c) Steve Scherf et al.
# Submitted via: CDex 1.70beta2
#
DISCID=b909780d
DTITLE=菊岡ひろみ - Linda Flor
DYEAR=2002
DGENRE=Jazz
TTITLE0=私の空間
TTITLE1=もうけんかはしない
TTITLE2=フェイス・アイ・ラヴ (EP Version)
TTITLE3=ソ・ダンソ・サンバ
TTITLE4=愛の十字路
TTITLE5=あなたの微笑み
TTITLE6=フォトグラフィア
TTITLE7=バトゥカーダ
TTITLE8=ビーチ・サンバ
TTITLE9=あなたと私
TTITLE10=ぼんやりと
TTITLE11=喜びの奴隷
TTITLE12=サマー・サンバ (Midnight Seashore Version)
EXTD=YEAR: 2002
EXTT0=
EXTT1=
EXTT2=
EXTT3=
EXTT4=
EXTT5=
EXTT6=
EXTT7=
EXTT8=
EXTT9=
EXTT10=
EXTT11=
EXTT12=
PLAYORDER=
